<?xml version="1.0" encoding="utf-8"?>
<!-- Generator: Adobe Illustrator 23.0.1, SVG Export Plug-In . SVG Version: 6.00 Build 0)  -->
<svg version="1.1" id="Layer_1" xmlns="http://www.w3.org/2000/svg" xmlns:xlink="http://www.w3.org/1999/xlink" x="0px" y="0px"
	 viewBox="0 0 4000 3800" style="enable-background:new 0 0 4000 3800;" xml:space="preserve">
<style type="text/css">
	.st0{fill:#808080;}
	.st1{fill:#89CFF0;}
</style>
<g>
	<g>
		<g>
			<g>
				<path class="st0" d="M1818.56,1867.89c0,11.96-5.76,23.48-20.16,29.9c18.16,5.54,24.81,24.81,24.81,34.55
					c0,34.55-25.91,45.63-58.03,45.63c-24.58,0-48.95,0-73.53,0v-155.04c24.36,0,48.95,0,73.53,0
					C1795.74,1822.92,1818.56,1836.65,1818.56,1867.89z M1720.44,1885.16h44.74c18.38,0,24.36-7.75,24.36-16.61
					c0-7.09-5.76-19.05-24.36-19.05h-44.74V1885.16z M1720.44,1950.72h44.74c11.96,0,29.02-3.99,29.02-18.6
					c0-13.96-17.06-21.26-29.02-21.26h-44.74V1950.72z"/>
				<path class="st0" d="M1990.9,1823.14v88.82c0,45.85-28.13,69.33-67.11,69.33c-37.21,0-68.88-22.59-68.88-69.33v-88.82h29.01
					v88.82c0,27.91,15.95,42.75,40.09,42.75c24.14,0,37.87-16.17,37.87-42.75v-88.82H1990.9z"/>
				<path class="st0" d="M2030.79,1977.97v-155.04h29.02v155.04H2030.79z"/>
				<path class="st0" d="M2127.59,1822.92v128.02h79.74v27.02h-108.97v-155.04H2127.59z"/>
				<path class="st0" d="M2375.46,1899.12c0.67,39.2-23.26,78.85-77.52,78.85c-19.05,0-41.86,0-60.91,0v-155.04
					c19.05,0,41.87,0,60.91,0C2351.09,1822.92,2374.8,1860.8,2375.46,1899.12z M2266.04,1949.84h31.9
					c35.22,0,49.17-25.69,48.51-50.94c-0.67-24.14-14.84-48.29-48.51-48.29h-31.9V1949.84z"/>
				<path class="st0" d="M2408.48,1977.97v-155.04h29.02v155.04H2408.48z"/>
				<path class="st0" d="M2577.93,1822.7h29.24v155.26h-18.16v0.22l-81.51-104.76v104.54h-29.24v-155.04h23.7l75.97,96.13V1822.7z"
					/>
				<path class="st0" d="M2760.24,1860.8c-10.41-9.97-25.91-15.51-39.42-15.51c-33.22,0-53.37,25.25-53.37,57.15
					c0,25.47,14.84,51.83,53.37,51.83c12.19,0,22.81-2.66,35-12.4v-27.47h-39.64v-26.13h66.44v65.34
					c-15.28,17.5-34.55,27.9-61.8,27.9c-58.25,0-81.95-38.31-81.95-79.07c0-43.64,27.25-83.95,81.95-83.95
					c20.82,0,41.65,7.97,57.59,23.7L2760.24,1860.8z"/>
				<path class="st0" d="M2996.16,1932.79c0,9.08,3.99,16.83,13.96,16.83v29.02c-11.52,0-24.36-2.66-29.24-20.38
					c-10.2,16.61-27.91,21.71-44.3,21.71c-33.89,0-61.36-10.85-61.57-49.17c0-13.06,9.52-27.47,23.92-32.34
					c-13.96-4.43-20.82-19.27-20.82-31.45c0.22-33,31.45-46.51,59.14-46.51c27.02,0,56.47,10.41,56.7,43.85h-27.69
					c0-14.18-13.96-19.05-29.68-19.05c-22.81,0-30.35,12.62-30.13,21.71c0,15.73,19.49,20.16,29.9,20.16c24.14,0,48.5,0,72.65,0
					v23.03h-12.84V1932.79z M2903.8,1931.01c0,16.39,16.17,22.81,32.34,22.81c10.41,0,32.34-5.54,32.34-21.26v-22.37
					c-11.3,0-22.37,0-33.67,0C2913.33,1910.19,2903.8,1921.71,2903.8,1931.01z"/>
			</g>
			<g>
				<g>
					<path class="st1" d="M1826.53,1636.54l-50.5,67.34h-5.76l-49.39-67.56v112.74h-29.24v-155.04h33.67l48.51,66.67l48.51-66.67
						h33.44v155.04h-29.24V1636.54z"/>
					<path class="st1" d="M2020.36,1638.76c0,11.96-5.76,23.48-20.16,29.9c18.16,5.54,24.81,24.81,24.81,34.55
						c0,34.55-25.91,45.63-58.03,45.63c-24.58,0-48.95,0-73.53,0v-155.04c24.36,0,48.95,0,73.53,0
						C1997.55,1593.79,2020.36,1607.52,2020.36,1638.76z M1922.24,1656.03h44.74c18.38,0,24.36-7.75,24.36-16.61
						c0-7.09-5.76-19.05-24.36-19.05h-44.74V1656.03z M1922.24,1721.59h44.74c11.96,0,29.02-3.99,29.02-18.6
						c0-13.96-17.06-21.26-29.02-21.26h-44.74V1721.59z"/>
					<path class="st1" d="M2193.37,1729.34c-15.95,15.73-36.55,23.03-58.92,23.03c-57.59,0-81.95-39.64-82.17-79.95
						c-0.22-40.54,26.14-81.73,82.17-81.73c21.04,0,40.98,7.97,56.93,23.7l-19.5,18.83c-10.19-9.97-23.92-14.62-37.43-14.62
						c-37.43,0-53.6,27.91-53.38,53.83c0.22,25.69,15.06,52.49,53.38,52.49c13.51,0,28.79-5.54,38.99-15.73L2193.37,1729.34z"/>
					<path class="st1" d="M2353.75,1636.54l-50.5,67.34h-5.76l-49.39-67.56v112.74h-29.23v-155.04h33.66l48.51,66.67l48.51-66.67
						h33.44v155.04h-29.24V1636.54z"/>
				</g>
				<g>
					<path class="st1" d="M1826.53,2093.47l-50.5,67.33h-5.76l-49.39-67.56v112.74h-29.24v-155.04h33.67l48.51,66.66l48.51-66.66
						h33.44v155.04h-29.24V2093.47z"/>
					<path class="st1" d="M2004.42,2176.53h-81.06l-13.29,29.24h-31.67l69.55-155.04h31.89l69.55,155.04h-31.89L2004.42,2176.53z
						 M1963.88,2083.29l-28.79,66h57.59L1963.88,2083.29z"/>
					<path class="st1" d="M2071.55,2205.77v-155.04h29.02v155.04H2071.55z"/>
					<path class="st1" d="M2241,2050.5h29.24v155.26h-18.17v0.22l-81.51-104.76v104.54h-29.23v-155.04h23.7l75.97,96.13V2050.5z"/>
					<path class="st1" d="M2348.23,2077.3h-49.17v-26.58c44.74,0,82.62,0,127.58,0v26.58h-49.17v128.46h-29.24V2077.3z"/>
					<path class="st1" d="M2571.06,2205.77h-116.06c0-51.61,0-103.43,0-155.04h116.06v28.35h-87.04v35.66h83.94v27.25h-83.94v34.99
						h87.04V2205.77z"/>
					<path class="st1" d="M2711.29,2050.5h29.24v155.26h-18.16v0.22l-81.5-104.76v104.54h-29.24v-155.04h23.71l75.97,96.13V2050.5z"
						/>
					<path class="st1" d="M2888.51,2176.53h-81.06l-13.29,29.24h-31.67l69.55-155.04h31.89l69.55,155.04h-31.89L2888.51,2176.53z
						 M2847.98,2083.29l-28.8,66h57.59L2847.98,2083.29z"/>
					<path class="st1" d="M3059.74,2050.5h29.24v155.26h-18.17v0.22l-81.5-104.76v104.54h-29.24v-155.04h23.7l75.97,96.13V2050.5z"
						/>
					<path class="st1" d="M3263.54,2186.27c-15.95,15.73-36.55,23.03-58.92,23.03c-57.58,0-81.95-39.64-82.17-79.95
						c-0.22-40.53,26.13-81.73,82.17-81.73c21.04,0,40.98,7.98,56.93,23.7l-19.49,18.82c-10.2-9.96-23.93-14.61-37.44-14.61
						c-37.43,0-53.6,27.9-53.37,53.82c0.22,25.69,15.06,52.49,53.37,52.49c13.51,0,28.8-5.54,38.98-15.73L3263.54,2186.27z"/>
					<path class="st1" d="M3406.64,2205.77h-116.06c0-51.61,0-103.43,0-155.04h116.06v28.35h-87.05v35.66h83.95v27.25h-83.95v34.99
						h87.05V2205.77z"/>
				</g>
			</g>
		</g>
	</g>
	<rect x="1591.37" y="1438.88" class="st0" width="23.09" height="922.24"/>
	<g>
		<g>
			<g>
				<path class="st1" d="M1061.1,1429.36l-218.08,218.08l218.08,218.08l218.08-218.08L1061.1,1429.36z M1113.17,1723.85v-110.9
					l-49.78,66.37h-5.67l-48.68-66.58v111.12h-28.82v-152.81h33.18l47.81,65.71l47.81-65.71h32.96v152.81H1113.17z"/>
				<path class="st1" d="M1061.1,1934.48l-218.08,218.08l218.08,218.08l218.08-218.08L1061.1,1934.48z M1113.17,2228.96v-110.9
					l-49.78,66.37h-5.67l-48.68-66.58v111.12h-28.82v-152.81h33.18l47.81,65.71l47.81-65.71h32.96v152.81H1113.17z"/>
			</g>
		</g>
		<g>
			<g>
				<path class="st0" d="M1342.41,1868.57c0-6.99-5.67-18.77-24.01-18.77h-44.1v35.15h44.1
					C1336.52,1884.94,1342.41,1877.3,1342.41,1868.57z"/>
				<path class="st0" d="M1318.4,1910.26h-44.1v39.3h44.1c11.78,0,28.6-3.93,28.6-18.34
					C1347,1917.47,1330.19,1910.26,1318.4,1910.26z"/>
				<path class="st0" d="M1310.76,1681.92L1092.68,1900l218.08,218.08L1528.84,1900L1310.76,1681.92z M1318.4,1976.41
					c-24.23,0-48.25,0-72.48,0v-152.81c24.01,0,48.25,0,72.48,0c30.13,0,52.61,13.54,52.61,44.31c0,11.79-5.67,23.14-19.86,29.47
					c17.9,5.46,24.45,24.45,24.45,34.06C1375.6,1965.49,1350.06,1976.41,1318.4,1976.41z"/>
			</g>
			<path class="st0" d="M811.44,1681.92L593.36,1900l218.08,218.08L1029.52,1900L811.44,1681.92z M742.78,1900.86
				c-0.22-39.45,25.44-79.55,79.98-79.55c20.48,0,39.88,7.76,55.4,23.07l-18.97,18.32c-9.92-9.7-23.28-14.23-36.43-14.23
				c-36.43,0-52.17,27.16-51.95,52.39c0.22,25,14.66,51.09,51.95,51.09c13.15,0,28.02-5.39,37.94-15.31l19.4,19.62
				c-15.52,15.31-35.57,22.42-57.34,22.42C766.71,1978.68,743,1940.09,742.78,1900.86z"/>
		</g>
	</g>
</g>
</svg>
